<svg width="16" height="16" viewBox="0 0 16 16" fill="none" xmlns="http://www.w3.org/2000/svg">
<path d="M12 12C12.2652 12 12.5196 11.8946 12.7071 11.7071C12.8946 11.5196 13 11.2652 13 11V8.558C13 8.29278 12.8946 8.03843 12.7071 7.85089C12.5196 7.66336 12.2652 7.558 12 7.558H10.612C10.612 7.20667 10.6327 6.85533 10.674 6.504C10.736 6.132 10.8393 5.80133 10.984 5.512C11.1287 5.22267 11.315 4.995 11.543 4.829C11.7697 4.643 12.059 4.55 12.411 4.55V3C11.8323 3 11.3257 3.124 10.891 3.372C10.4593 3.61687 10.0885 3.95595 9.806 4.364C9.52161 4.81315 9.31221 5.30559 9.186 5.822C9.05838 6.39174 8.99598 6.97415 9 7.558V11C9 11.2652 9.10536 11.5196 9.29289 11.7071C9.48043 11.8946 9.73478 12 10 12H12ZM6 12C6.26522 12 6.51957 11.8946 6.70711 11.7071C6.89464 11.5196 7 11.2652 7 11V8.558C7 8.29278 6.89464 8.03843 6.70711 7.85089C6.51957 7.66336 6.26522 7.558 6 7.558H4.612C4.612 7.20667 4.63267 6.85533 4.674 6.504C4.73667 6.132 4.84 5.80133 4.984 5.512C5.12867 5.22267 5.315 4.995 5.543 4.829C5.76967 4.643 6.059 4.55 6.411 4.55V3C5.83233 3 5.32567 3.124 4.891 3.372C4.45934 3.61687 4.08847 3.95595 3.806 4.364C3.52161 4.81315 3.31221 5.30559 3.186 5.822C3.05838 6.39174 2.99598 6.97415 3 7.558V11C3 11.2652 3.10536 11.5196 3.29289 11.7071C3.48043 11.8946 3.73478 12 4 12H6Z" fill="#FCF4F4"/>
</svg>
