<svg width="21" height="21" viewBox="0 0 21 21" fill="none" xmlns="http://www.w3.org/2000/svg">
<path d="M14.8681 14.2314C14.9099 14.2732 14.9431 14.3229 14.9657 14.3775C14.9884 14.4321 15 14.4907 15 14.5498C15 14.6089 14.9884 14.6674 14.9657 14.7221C14.9431 14.7767 14.9099 14.8263 14.8681 14.8681C14.8263 14.9099 14.7767 14.9431 14.7221 14.9657C14.6674 14.9884 14.6089 15 14.5498 15C14.4907 15 14.4321 14.9884 14.3775 14.9657C14.3229 14.9431 14.2732 14.9099 14.2314 14.8681L10.5 11.1362L6.76858 14.8681C6.68415 14.9526 6.56963 15 6.45023 15C6.33082 15 6.2163 14.9526 6.13187 14.8681C6.04743 14.7837 6 14.6692 6 14.5498C6 14.4304 6.04743 14.3159 6.13187 14.2314L9.86385 10.5L6.13187 6.76858C6.04743 6.68415 6 6.56963 6 6.45023C6 6.33082 6.04743 6.2163 6.13187 6.13187C6.2163 6.04743 6.33082 6 6.45023 6C6.56963 6 6.68415 6.04743 6.76858 6.13187L10.5 9.86385L14.2314 6.13187C14.3159 6.04743 14.4304 6 14.5498 6C14.6692 6 14.7837 6.04743 14.8681 6.13187C14.9526 6.2163 15 6.33082 15 6.45023C15 6.56963 14.9526 6.68415 14.8681 6.76858L11.1362 10.5L14.8681 14.2314Z" fill="#BBADA4"/>
</svg>
