<svg width="16" height="16" viewBox="0 0 16 16" fill="none" xmlns="http://www.w3.org/2000/svg">
<path d="M3.99982 4C3.7346 4 3.48025 4.10536 3.29271 4.29289C3.10518 4.48043 2.99982 4.73478 2.99982 5V7.442C2.99982 7.70722 3.10518 7.96157 3.29271 8.14911C3.48025 8.33664 3.7346 8.442 3.99982 8.442H5.38782C5.38782 8.79333 5.36715 9.14467 5.32582 9.496C5.26382 9.868 5.16048 10.1987 5.01582 10.488C4.87115 10.7773 4.68482 11.005 4.45682 11.171C4.23015 11.357 3.94082 11.45 3.58882 11.45V13C4.16748 13 4.67415 12.876 5.10882 12.628C5.54048 12.3831 5.91134 12.044 6.19382 11.636C6.47821 11.1869 6.68761 10.6944 6.81382 10.178C6.94143 9.60826 7.00384 9.02585 6.99982 8.442V5C6.99982 4.73478 6.89446 4.48043 6.70692 4.29289C6.51939 4.10536 6.26503 4 5.99982 4H3.99982ZM9.99982 4C9.7346 4 9.48025 4.10536 9.29271 4.29289C9.10517 4.48043 8.99982 4.73478 8.99982 5V7.442C8.99982 7.70722 9.10517 7.96157 9.29271 8.14911C9.48025 8.33664 9.7346 8.442 9.99982 8.442H11.3878C11.3878 8.79333 11.3672 9.14467 11.3258 9.496C11.2632 9.868 11.1598 10.1987 11.0158 10.488C10.8712 10.7773 10.6848 11.005 10.4568 11.171C10.2302 11.357 9.94082 11.45 9.58882 11.45V13C10.1675 13 10.6742 12.876 11.1088 12.628C11.5405 12.3831 11.9113 12.044 12.1938 11.636C12.4782 11.1869 12.6876 10.6944 12.8138 10.178C12.9414 9.60826 13.0038 9.02585 12.9998 8.442V5C12.9998 4.73478 12.8945 4.48043 12.7069 4.29289C12.5194 4.10536 12.265 4 11.9998 4H9.99982Z" fill="#897D76"/>
</svg>
