<svg width="16" height="16" viewBox="0 0 16 16" fill="none" xmlns="http://www.w3.org/2000/svg">
<path d="M4 4C3.73478 4 3.48043 4.10536 3.29289 4.29289C3.10536 4.48043 3 4.73478 3 5V7.442C3 7.70722 3.10536 7.96157 3.29289 8.14911C3.48043 8.33664 3.73478 8.442 4 8.442H5.388C5.388 8.79333 5.36733 9.14467 5.326 9.496C5.264 9.868 5.16067 10.1987 5.016 10.488C4.87133 10.7773 4.685 11.005 4.457 11.171C4.23033 11.357 3.941 11.45 3.589 11.45V13C4.16767 13 4.67433 12.876 5.109 12.628C5.54066 12.3831 5.91153 12.044 6.194 11.636C6.47839 11.1869 6.68779 10.6944 6.814 10.178C6.94162 9.60826 7.00402 9.02585 7 8.442V5C7 4.73478 6.89464 4.48043 6.70711 4.29289C6.51957 4.10536 6.26522 4 6 4H4ZM10 4C9.73478 4 9.48043 4.10536 9.29289 4.29289C9.10536 4.48043 9 4.73478 9 5V7.442C9 7.70722 9.10536 7.96157 9.29289 8.14911C9.48043 8.33664 9.73478 8.442 10 8.442H11.388C11.388 8.79333 11.3673 9.14467 11.326 9.496C11.2633 9.868 11.16 10.1987 11.016 10.488C10.8713 10.7773 10.685 11.005 10.457 11.171C10.2303 11.357 9.941 11.45 9.589 11.45V13C10.1677 13 10.6743 12.876 11.109 12.628C11.5407 12.3831 11.9115 12.044 12.194 11.636C12.4784 11.1869 12.6878 10.6944 12.814 10.178C12.9416 9.60826 13.004 9.02585 13 8.442V5C13 4.73478 12.8946 4.48043 12.7071 4.29289C12.5196 4.10536 12.2652 4 12 4H10Z" fill="#FCF4F4"/>
</svg>
