<svg width="48" height="48" viewBox="0 0 48 48" fill="none" xmlns="http://www.w3.org/2000/svg">
<path fill-rule="evenodd" clip-rule="evenodd" d="M21.7225 35H27.2775C31.1788 35 33.13 35 34.5312 34.1017C35.1359 33.7142 35.6566 33.2142 36.0637 32.6301C37 31.2857 37 29.412 37 25.6671C37 21.921 37 20.0486 36.0637 18.7042C35.6566 18.1201 35.1359 17.62 34.5312 17.2326C33.6313 16.6545 32.5037 16.4479 30.7775 16.3746C29.9537 16.3746 29.245 15.7757 29.0837 14.9996C28.9605 14.4311 28.6403 13.9217 28.1773 13.5573C27.7143 13.193 27.1368 12.9962 26.5425 13.0001H22.4575C21.2225 13.0001 20.1588 13.8373 19.9163 14.9996C19.755 15.7757 19.0463 16.3746 18.2225 16.3746C16.4975 16.4479 15.37 16.6557 14.4688 17.2326C13.8645 17.6201 13.3442 18.1201 12.9375 18.7042C12 20.0486 12 21.921 12 25.6671C12 29.412 12 31.2845 12.9363 32.6301C13.3413 33.2119 13.8612 33.7118 14.4688 34.1017C15.87 35 17.8212 35 21.7225 35ZM24.5 20.667C21.6237 20.667 19.2913 22.9049 19.2913 25.6659C19.2913 28.4281 21.6237 30.666 24.5 30.666C27.3763 30.666 29.7087 28.4281 29.7087 25.6671C29.7087 22.9049 27.3763 20.667 24.5 20.667ZM24.5 22.6666C22.775 22.6666 21.375 24.0098 21.375 25.6671C21.375 27.3232 22.775 28.6665 24.5 28.6665C26.225 28.6665 27.625 27.3232 27.625 25.6671C27.625 24.0098 26.225 22.6666 24.5 22.6666ZM30.4025 21.6668C30.4025 21.1144 30.8687 20.667 31.445 20.667H32.8325C33.4075 20.667 33.875 21.1144 33.875 21.6668C33.8724 21.9344 33.7612 22.1899 33.566 22.3774C33.3707 22.5649 33.1074 22.6689 32.8337 22.6666H31.445C31.3094 22.6679 31.1749 22.643 31.0491 22.5935C30.9233 22.5439 30.8088 22.4707 30.712 22.3778C30.6152 22.285 30.538 22.1744 30.4849 22.0524C30.4318 21.9304 30.4038 21.7994 30.4025 21.6668Z" fill="#BBADA4"/>
</svg>
