<svg width="48" height="48" viewBox="0 0 48 48" fill="none" xmlns="http://www.w3.org/2000/svg">
<path d="M19.0004 20V28.8C18.9965 28.9539 19.0242 29.1071 19.082 29.2507C19.1398 29.3943 19.2265 29.5256 19.3372 29.637C19.4478 29.7485 19.5803 29.8379 19.7269 29.9002C19.8736 29.9624 20.0316 29.9964 20.1919 30H27.7872C27.9493 29.999 28.1096 29.967 28.2587 29.9059C28.4077 29.8448 28.5426 29.7557 28.6555 29.644C28.7684 29.5323 28.8569 29.4002 28.916 29.2553C28.9751 29.1103 29.0035 28.9556 28.9997 28.8V20H19.0004ZM22.7501 28H21.9168V22H22.7501V28ZM26.0832 28H25.2499V22H26.0832V28Z" fill="#FCF4F4"/>
<path d="M28.6394 18.2H25.8518V17.8C25.8518 17.5878 25.7758 17.3843 25.6405 17.2343C25.5053 17.0843 25.3218 17 25.1305 17H22.8947C22.7162 17.0199 22.5507 17.1129 22.4307 17.2608C22.3107 17.4087 22.2447 17.601 22.2456 17.8V18.2H19.3606C19.265 18.2 19.1733 18.2421 19.1056 18.3172C19.038 18.3922 19 18.4939 19 18.6C19 18.7061 19.038 18.8078 19.1056 18.8828C19.1733 18.9579 19.265 19 19.3606 19H28.6394C28.735 19 28.8267 18.9579 28.8944 18.8828C28.962 18.8078 29 18.7061 29 18.6C29 18.4939 28.962 18.3922 28.8944 18.3172C28.8267 18.2421 28.735 18.2 28.6394 18.2Z" fill="#FCF4F4"/>
</svg>
